<svg width="32" height="23" viewBox="0 0 32 23" fill="none" xmlns="http://www.w3.org/2000/svg">
<path d="M0 0.730225V2.73022H19V17.7302H12.844C12.398 16.0112 10.852 14.7302 9 14.7302C7.148 14.7302 5.602 16.0112 5.156 17.7302H4V12.7302H2V19.7302H5.156C5.602 21.4492 7.148 22.7302 9 22.7302C10.852 22.7302 12.398 21.4492 12.844 19.7302H21.156C21.602 21.4492 23.148 22.7302 25 22.7302C26.852 22.7302 28.398 21.4492 28.844 19.7302H32V11.5742L31.937 11.4172L29.937 5.41722L29.72 4.73022H21V0.730225H0ZM1 4.73022V6.73022H10V4.73022H1ZM21 6.73022H28.281L30 11.8552V17.7302H28.844C28.398 16.0112 26.852 14.7302 25 14.7302C23.148 14.7302 21.602 16.0112 21.156 17.7302H21V6.73022ZM2 8.73022V10.7302H8V8.73022H2ZM9 16.7302C10.117 16.7302 11 17.6132 11 18.7302C11 19.8472 10.117 20.7302 9 20.7302C7.883 20.7302 7 19.8472 7 18.7302C7 17.6132 7.883 16.7302 9 16.7302ZM25 16.7302C26.117 16.7302 27 17.6132 27 18.7302C27 19.8472 26.117 20.7302 25 20.7302C23.883 20.7302 23 19.8472 23 18.7302C23 17.6132 23.883 16.7302 25 16.7302Z" fill="#9DD458"/>
</svg>
