<svg width="15" height="22" viewBox="0 0 15 22" fill="none" xmlns="http://www.w3.org/2000/svg">
<path d="M4.23934 20.7042C4.0912 20.6439 3.9681 20.5378 3.88946 20.4025C3.81081 20.2673 3.78111 20.1106 3.80502 19.9573L5.12247 11.6855H1.62616C1.51531 11.6884 1.40526 11.6667 1.30451 11.622C1.20375 11.5774 1.11497 11.511 1.04502 11.4281C0.975069 11.3451 0.925821 11.2477 0.901072 11.1435C0.876324 11.0393 0.876738 10.931 0.902281 10.8269L3.0739 1.75234C3.11212 1.59617 3.20496 1.45746 3.3368 1.35956C3.46864 1.26167 3.63144 1.21056 3.79778 1.21485H11.0365C11.1447 1.21449 11.2515 1.23751 11.3492 1.2822C11.4469 1.3269 11.533 1.39214 11.6011 1.47312C11.6702 1.55503 11.7192 1.65098 11.7442 1.75375C11.7693 1.85652 11.7699 1.96344 11.7459 2.06646L10.4936 7.49724H13.932C14.0677 7.49697 14.2007 7.53348 14.3159 7.6026C14.4311 7.67172 14.5238 7.77066 14.5835 7.88814C14.6354 8.0009 14.6553 8.1249 14.6413 8.24752C14.6274 8.37014 14.5799 8.48699 14.5039 8.58618L5.09351 20.4529C5.02991 20.5438 4.94499 20.619 4.84564 20.6724C4.74629 20.7257 4.63529 20.7558 4.52165 20.7601C4.42479 20.7583 4.32909 20.7394 4.23934 20.7042V20.7042ZM8.68393 8.89332L10.1317 2.61094H4.37688L2.53824 10.2894H6.81633L5.66537 17.4653L12.4843 8.89332H8.68393Z" fill="#9DD458" stroke="#9DD458" stroke-width="0.5"/>
</svg>
