<svg width="19" height="22" viewBox="0 0 19 22" fill="none" xmlns="http://www.w3.org/2000/svg">
<path d="M9.0083 11.9349C10.6652 11.9349 12.0083 10.6223 12.0083 9.00311C12.0083 7.38391 10.6652 6.07129 9.0083 6.07129C7.35145 6.07129 6.0083 7.38391 6.0083 9.00311C6.0083 10.6223 7.35145 11.9349 9.0083 11.9349Z" stroke="#9DD458" stroke-width="2" stroke-linecap="round" stroke-linejoin="round"/>
<path d="M9.0083 1.18481C6.88657 1.18481 4.85174 2.00851 3.35145 3.47471C1.85116 4.9409 1.0083 6.92949 1.0083 9.003C1.0083 10.852 1.4103 12.0619 2.5083 13.4007L9.0083 20.7303L15.5083 13.4007C16.6063 12.0619 17.0083 10.852 17.0083 9.003C17.0083 6.92949 16.1654 4.9409 14.6652 3.47471C13.1649 2.00851 11.13 1.18481 9.0083 1.18481V1.18481Z" stroke="#9DD458" stroke-width="2" stroke-linecap="round" stroke-linejoin="round"/>
</svg>
